<svg width="48" height="46" viewBox="0 0 48 46" fill="none" xmlns="http://www.w3.org/2000/svg">
<g filter="url(#filter0_d_1_1415)">
<path d="M29.1467 39.3246C37.6889 37.0507 44 29.2482 44 20C44 19.9022 44 19.8074 43.9969 19.7096C43.9236 17.4816 42.8631 15.5318 41.2402 14.2757C40.03 13.3343 38.5049 12.7781 36.8454 12.7781H31.2219V5.85878C31.2219 5.3545 30.8123 4.94191 30.305 4.94191C29.7977 4.94191 29.3881 5.3545 29.3881 5.85878V14.6118H36.8454C39.7366 14.6118 42.0746 16.8765 42.1632 19.7677C42.1663 19.8441 42.1663 19.9236 42.1663 20C42.1663 22.503 41.6559 24.89 40.7359 27.066C40.6718 27.2158 40.6076 27.3625 40.5403 27.5122C38.7066 31.5342 35.4425 34.7799 31.4053 36.5862C31.173 37.0446 30.8949 37.4817 30.574 37.8943C30.1522 38.4352 29.6754 38.915 29.1467 39.3246Z" fill="#FAF5F5"/>
<path d="M4.67241 25.1405C6.94319 33.6858 14.7488 40 24 40H24.0826C24.1528 40 24.2201 40 24.2904 39.9969C26.5184 39.9266 28.4683 38.8661 29.7274 37.2402C30.6687 36.0299 31.2219 34.5048 31.2219 32.8453V27.2218H38.1412C38.4469 27.2218 38.7219 27.069 38.887 26.8367C38.942 26.7573 38.9848 26.6717 39.0153 26.577C39.0428 26.4914 39.0581 26.3997 39.0581 26.305C39.0581 25.7976 38.6455 25.3881 38.1412 25.3881H29.3882V32.8453C29.3882 35.7396 27.1235 38.0745 24.2323 38.1632C24.1895 38.1662 24.1437 38.1662 24.0978 38.1662H24C16.6162 38.1662 10.25 33.7408 7.4108 27.4022C6.95236 27.1729 6.51837 26.8948 6.10578 26.5739C5.56177 26.1521 5.08194 25.6723 4.67241 25.1405Z" fill="#FAF5F5"/>
<path d="M20.3265 30.7335H24.8039C26.3259 30.7335 27.5637 29.4957 27.5637 27.9737V23.86H34.4341V19.3796C34.4341 17.8576 33.1963 16.6198 31.6743 16.6198H27.5606V9.7494H23.0832C21.5612 9.7494 20.3235 10.9872 20.3235 12.5092V16.6229H13.453V21.1003C13.453 22.6223 14.6908 23.86 16.2128 23.86H20.3265V30.7335ZM32.6034 22.0263H25.733V27.9737C25.733 28.4841 25.3173 28.8998 24.8069 28.8998H22.1633V22.0263H16.2159C15.7055 22.0263 15.2898 21.6107 15.2898 21.1003V18.4566H22.1602V12.5092C22.1602 11.9988 22.5759 11.5831 23.0863 11.5831H25.7299V18.4536H31.6774C32.1878 18.4536 32.6034 18.8692 32.6034 19.3796V22.0263Z" fill="#FAF5F5"/>
<path d="M4.0001 20V20.0825C4.0001 20.1497 4.0001 20.22 4.00315 20.2873C4.07344 22.5183 5.13396 24.4682 6.75988 25.7274C7.97015 26.6687 9.49521 27.2219 11.1547 27.2219H16.7782V34.1381C16.7782 34.6455 17.1878 35.055 17.6951 35.055C18.2024 35.055 18.612 34.6455 18.612 34.1381V25.3881H11.1547C8.26049 25.3881 5.92552 23.1235 5.83689 20.2323C5.83384 20.1895 5.83384 20.1436 5.83384 20.0978V20C5.83384 17.4969 6.34423 15.107 7.26415 12.934C9.05816 8.70415 12.4078 5.28727 16.5948 3.4138C16.8271 2.95536 17.1052 2.51832 17.4261 2.10573C17.8448 1.56478 18.3216 1.08495 18.8503 0.675415C10.3082 2.94925 4.0001 10.7518 4.0001 20Z" fill="#FAF5F5"/>
<path d="M8.94512 13.695C8.94512 14.1993 9.35465 14.6119 9.86199 14.6119H18.612V7.15465C18.612 4.26345 20.8767 1.92542 23.7679 1.83679C23.8443 1.83374 23.9237 1.83374 24.0001 1.83374C31.3809 1.83374 37.7501 6.25917 40.5894 12.5978C41.0478 12.8301 41.4849 13.1082 41.8944 13.4291C42.4353 13.8478 42.9152 14.3307 43.3247 14.8594C41.0539 6.31418 33.2483 1.08388e-10 24.0001 1.08388e-10C23.9023 1.08388e-10 23.8045 -6.34222e-06 23.7067 0.00304989C21.4787 0.0733433 19.5289 1.13386 18.2727 2.75978C17.3314 3.97005 16.7782 5.49511 16.7782 7.15465V12.7781H9.86199C9.51358 12.7781 9.21101 12.9707 9.05514 13.258C8.98485 13.3863 8.94512 13.5361 8.94512 13.695Z" fill="#FAF5F5"/>
</g>
<defs>
<filter id="filter0_d_1_1415" x="0" y="0" width="48" height="48" filterUnits="userSpaceOnUse" color-interpolation-filters="sRGB">
<feFlood flood-opacity="0" result="BackgroundImageFix"/>
<feColorMatrix in="SourceAlpha" type="matrix" values="0 0 0 0 0 0 0 0 0 0 0 0 0 0 0 0 0 0 127 0" result="hardAlpha"/>
<feOffset dy="4"/>
<feGaussianBlur stdDeviation="2"/>
<feComposite in2="hardAlpha" operator="out"/>
<feColorMatrix type="matrix" values="0 0 0 0 0 0 0 0 0 0 0 0 0 0 0 0 0 0 0.25 0"/>
<feBlend mode="normal" in2="BackgroundImageFix" result="effect1_dropShadow_1_1415"/>
<feBlend mode="normal" in="SourceGraphic" in2="effect1_dropShadow_1_1415" result="shape"/>
</filter>
</defs>
</svg>
