<svg width="28" height="28" viewBox="0 0 28 28" fill="none" xmlns="http://www.w3.org/2000/svg">
<path d="M2.91675 4.95834C2.91675 4.72627 3.00894 4.50371 3.17303 4.33962C3.33712 4.17552 3.55968 4.08334 3.79175 4.08334H4.44275C5.55108 4.08334 6.21608 4.82884 6.59525 5.52184C6.84841 5.98384 7.03158 6.51934 7.17508 7.00467C7.2139 7.00161 7.25281 7.00005 7.29175 7H21.8727C22.8411 7 23.5411 7.92634 23.2751 8.8585L21.1424 16.3357C20.9512 17.0063 20.5467 17.5964 19.9901 18.0166C19.4335 18.4368 18.7551 18.6642 18.0577 18.6643H11.1184C10.4155 18.6644 9.73201 18.4335 9.17303 18.0074C8.61404 17.5812 8.2105 16.9832 8.02441 16.3053L7.13775 13.0713L5.66775 8.11534L5.66658 8.106C5.48458 7.4445 5.31425 6.825 5.05991 6.363C4.81608 5.91384 4.62008 5.83334 4.44391 5.83334H3.79175C3.55968 5.83334 3.33712 5.74115 3.17303 5.57705C3.00894 5.41296 2.91675 5.1904 2.91675 4.95834ZM8.83525 12.6467L9.71141 15.8422C9.88641 16.4745 10.4616 16.9143 11.1184 16.9143H18.0577C18.3747 16.9143 18.6831 16.811 18.9361 16.6201C19.1892 16.4292 19.3731 16.161 19.4601 15.8562L21.4866 8.75H7.68258L8.81891 12.5848L8.83525 12.6467ZM12.8334 22.1667C12.8334 22.7855 12.5876 23.379 12.15 23.8166C11.7124 24.2542 11.1189 24.5 10.5001 24.5C9.88124 24.5 9.28775 24.2542 8.85017 23.8166C8.41258 23.379 8.16675 22.7855 8.16675 22.1667C8.16675 21.5478 8.41258 20.9543 8.85017 20.5168C9.28775 20.0792 9.88124 19.8333 10.5001 19.8333C11.1189 19.8333 11.7124 20.0792 12.15 20.5168C12.5876 20.9543 12.8334 21.5478 12.8334 22.1667ZM11.0834 22.1667C11.0834 22.012 11.022 21.8636 10.9126 21.7542C10.8032 21.6448 10.6548 21.5833 10.5001 21.5833C10.3454 21.5833 10.197 21.6448 10.0876 21.7542C9.97821 21.8636 9.91675 22.012 9.91675 22.1667C9.91675 22.3214 9.97821 22.4698 10.0876 22.5791C10.197 22.6885 10.3454 22.75 10.5001 22.75C10.6548 22.75 10.8032 22.6885 10.9126 22.5791C11.022 22.4698 11.0834 22.3214 11.0834 22.1667ZM21.0001 22.1667C21.0001 22.7855 20.7542 23.379 20.3167 23.8166C19.8791 24.2542 19.2856 24.5 18.6667 24.5C18.0479 24.5 17.4544 24.2542 17.0168 23.8166C16.5792 23.379 16.3334 22.7855 16.3334 22.1667C16.3334 21.5478 16.5792 20.9543 17.0168 20.5168C17.4544 20.0792 18.0479 19.8333 18.6667 19.8333C19.2856 19.8333 19.8791 20.0792 20.3167 20.5168C20.7542 20.9543 21.0001 21.5478 21.0001 22.1667ZM19.2501 22.1667C19.2501 22.012 19.1886 21.8636 19.0792 21.7542C18.9698 21.6448 18.8215 21.5833 18.6667 21.5833C18.512 21.5833 18.3637 21.6448 18.2543 21.7542C18.1449 21.8636 18.0834 22.012 18.0834 22.1667C18.0834 22.3214 18.1449 22.4698 18.2543 22.5791C18.3637 22.6885 18.512 22.75 18.6667 22.75C18.8215 22.75 18.9698 22.6885 19.0792 22.5791C19.1886 22.4698 19.2501 22.3214 19.2501 22.1667Z" fill="#444444"/>
</svg>
