<svg width="15" height="15" viewBox="0 0 15 15" fill="none" xmlns="http://www.w3.org/2000/svg">
<g clip-path="url(#clip0_318_6)">
<path d="M11.7279 14.4643C11.432 14.4643 11.1921 14.2244 11.1921 13.9285C11.1921 13.6327 11.432 13.3928 11.7279 13.3928C12.0238 13.3928 12.2636 13.6327 12.2636 13.9285C12.2636 14.2244 12.0238 14.4643 11.7279 14.4643Z" stroke="#525252" stroke-linecap="round" stroke-linejoin="round"/>
<path d="M4.7635 14.4643C4.46763 14.4643 4.22778 14.2244 4.22778 13.9285C4.22778 13.6327 4.46763 13.3928 4.7635 13.3928C5.05937 13.3928 5.29921 13.6327 5.29921 13.9285C5.29921 14.2244 5.05937 14.4643 4.7635 14.4643Z" stroke="#525252" stroke-linecap="round" stroke-linejoin="round"/>
<path d="M10.2905 6.96429H7.07617" stroke="#525252" stroke-linecap="round" stroke-linejoin="round"/>
<path d="M8.68335 5.35712V8.5714" stroke="#525252" stroke-linecap="round" stroke-linejoin="round"/>
<path d="M0.535645 0.535706H3.21422L3.49617 3.21428M3.49617 3.21428L4.18467 9.75501C4.24207 10.3003 4.70189 10.7143 5.25021 10.7143H12.0205C12.5122 10.7143 12.9408 10.3797 13.06 9.90271L14.3993 4.54557C14.5684 3.86934 14.0569 3.21428 13.3598 3.21428H3.49617Z" stroke="#525252" stroke-linecap="round" stroke-linejoin="round"/>
</g>
<defs>
<clipPath id="clip0_318_6">
<rect width="15" height="15" fill="white"/>
</clipPath>
</defs>
</svg>
