<?xml version="1.0" encoding="utf-8"?>
<!-- Generator: Adobe Illustrator 27.5.0, SVG Export Plug-In . SVG Version: 6.00 Build 0)  -->
<svg version="1.1" xmlns="http://www.w3.org/2000/svg" xmlns:xlink="http://www.w3.org/1999/xlink" x="0px" y="0px"
	 viewBox="0 0 500 500" style="enable-background:new 0 0 500 500;" xml:space="preserve">
<g id="Background_Simple">
	<g>
		<path style="fill:#92E3A9;" d="M464.309,250.58c16.623-106.333-72.083-213.511-188.555-226.822
			c-1.449-0.166-2.901-0.321-4.354-0.465c-81.383-8.083-155.773,54.082-177.043,101.497c-21.27,47.415-76.935,92.521-56.303,180.403
			c20.632,87.882,76.684,134.708,208.102,148.566c131.417,13.858,155.665-23.727,190.551-105.835
			C448.797,319.471,458.85,285.499,464.309,250.58z"/>
		<path style="opacity:0.7;fill:#FFFFFF;" d="M464.309,250.58c16.623-106.333-72.083-213.511-188.555-226.822
			c-1.449-0.166-2.901-0.321-4.354-0.465c-81.383-8.083-155.773,54.082-177.043,101.497c-21.27,47.415-76.935,92.521-56.303,180.403
			c20.632,87.882,76.684,134.708,208.102,148.566c131.417,13.858,155.665-23.727,190.551-105.835
			C448.797,319.471,458.85,285.499,464.309,250.58z"/>
	</g>
</g>
<g id="Emoji_5">
	<g>
		<g>
			
				<ellipse transform="matrix(0.7071 -0.7071 0.7071 0.7071 56.1728 311.4669)" style="fill:#FFFFFF;stroke:#263238;stroke-miterlimit:10;" cx="404.06" cy="87.927" rx="48.943" ry="48.943"/>
			<g>
				<g>
					<g>
						<path style="fill:#92E3A9;stroke:#263238;stroke-miterlimit:10;" d="M378.917,104.015c-0.111,0-0.225-0.02-0.335-0.061
							c-21.064-7.859-25.15-21.957-25.314-22.553c-0.14-0.511,0.16-1.039,0.672-1.179c0.509-0.141,1.038,0.16,1.179,0.67
							c0.053,0.188,4.087,13.784,24.134,21.265c0.497,0.185,0.749,0.738,0.564,1.234
							C379.672,103.777,379.306,104.015,378.917,104.015z"/>
					</g>
					<g>
						<path style="fill:#92E3A9;stroke:#263238;stroke-miterlimit:10;" d="M429.01,104.015c-0.389,0-0.755-0.238-0.899-0.624
							c-0.185-0.497,0.067-1.05,0.564-1.234c10.507-3.921,16.507-9.31,19.69-13.141c3.443-4.143,4.425-7.407,4.434-7.438
							c0.149-0.507,0.68-0.802,1.189-0.653c0.508,0.147,0.801,0.678,0.655,1.185c-0.163,0.568-4.241,13.988-25.298,21.845
							C429.235,103.996,429.121,104.015,429.01,104.015z"/>
					</g>
					<g>
						<path style="fill:#92E3A9;stroke:#263238;stroke-miterlimit:10;" d="M376.204,128.477c-2.642,0-3.642-1.486-3.693-1.565
							c-0.288-0.445-0.16-1.039,0.285-1.327c0.437-0.283,1.02-0.163,1.313,0.263c0.065,0.085,1.034,1.261,4.069,0.405
							c0.509-0.143,1.04,0.154,1.184,0.665c0.143,0.51-0.154,1.04-0.664,1.184C377.74,128.37,376.912,128.477,376.204,128.477z"/>
					</g>
					<g>
						<path style="fill:#92E3A9;stroke:#263238;stroke-miterlimit:10;" d="M431.578,128.954c-2.161,0-4.849-0.666-4.98-0.699
							c-0.514-0.128-0.826-0.649-0.698-1.163c0.128-0.514,0.645-0.829,1.164-0.698c0.936,0.233,3.702,0.797,5.246,0.601
							c0.529-0.058,1.006,0.306,1.073,0.831c0.067,0.526-0.306,1.007-0.831,1.073C432.249,128.937,431.92,128.954,431.578,128.954z"
							/>
					</g>
				</g>
				<path style="fill:#92E3A9;stroke:#263238;stroke-miterlimit:10;" d="M429.683,127.177c-9.059,9.059-42.186,9.059-51.245,0
					c-5.29-5.29-5.819-25.225,0-29.927c9.965-8.052,41.281-8.052,51.245,0C435.502,101.952,434.973,121.887,429.683,127.177z"/>
				<path style="fill:#92E3A9;stroke:#263238;stroke-miterlimit:10;" d="M427.33,125.838c-8.227,8.227-38.313,8.227-46.54,0
					c-4.805-4.805-5.285-22.909,0-27.179c9.05-7.313,37.49-7.313,46.54,0C432.615,102.929,432.135,121.033,427.33,125.838z"/>
				<path style="fill:none;stroke:#263238;stroke-miterlimit:10;" d="M400.537,104.651c7.812,0.121,17.097-0.125,26.515-1.26"/>
				<path style="fill:none;stroke:#263238;stroke-miterlimit:10;" d="M379.817,103.391c0,0,6.965,0.87,17.221,1.18"/>
				<path style="fill:none;stroke:#263238;stroke-miterlimit:10;" d="M425.041,113.776c0.95-0.173,1.911-0.359,2.883-0.558"/>
				<path style="fill:none;stroke:#263238;stroke-miterlimit:10;" d="M379.294,113.219c0,0,16.754,5.041,42.057,1.175"/>
				<path style="fill:none;stroke:#263238;stroke-miterlimit:10;" d="M389.747,124.665c9.087,1.317,24.119,2.416,36.608-1.86"/>
				<path style="fill:none;stroke:#263238;stroke-miterlimit:10;" d="M381.56,123.154c0,0,2.202,0.543,5.802,1.141"/>
			</g>
			<path style="fill:#263238;" d="M417.442,81.862c4.164,0,7.899,1.3,10.502,3.359c-0.749-4.967-5.159-8.786-10.502-8.786
				c-5.344,0-9.753,3.819-10.502,8.786C409.543,83.162,413.278,81.862,417.442,81.862z"/>
			<path style="fill:#263238;" d="M390.971,60.499c4.164,0,7.899,1.3,10.502,3.359c-0.749-4.967-5.159-8.786-10.502-8.786
				c-5.344,0-9.753,3.819-10.502,8.786C383.071,61.799,386.806,60.499,390.971,60.499z"/>
			<path style="fill:#263238;" d="M419.463,68.979c4.164,0,7.899,1.3,10.502,3.359c-0.749-4.967-5.159-8.786-10.502-8.786
				c-5.344,0-9.753,3.819-10.502,8.786C411.564,70.279,415.299,68.979,419.463,68.979z"/>
			<path style="fill:#263238;" d="M395.72,78.476c0,4.309-2.506,7.801-5.597,7.801c-3.091,0-5.597-3.493-5.597-7.801
				c0-4.309,2.506-7.802,5.597-7.802C393.214,70.675,395.72,74.168,395.72,78.476z"/>
		</g>
		<g>
			<path style="fill:#92E3A9;stroke:#263238;stroke-miterlimit:10;" d="M439.38,95.838c-0.355-0.675,3.993-2.403,4.469-2.575
				c3.449-1.243,7.89-0.441,9.94,2.842c4.276,6.851-3.403,14.045-8.827,16.878c-2.011,1.051-4.584,1.807-6.324,3.298
				c-1.734,1.487-1.611,2.354-1.611,2.354s-4.584-1.858-8.92-6.566c-4.886-5.305-10.273-20.615,0.968-22.329
				C433.164,89.117,437.35,92.498,439.38,95.838z"/>
			<path style="fill:#FFFFFF;" d="M452.81,98.036c0,1.431-1.237,2.591-2.764,2.591s-2.764-1.16-2.764-2.591
				c0-1.431,1.237-2.591,2.764-2.591S452.81,96.605,452.81,98.036z"/>
		</g>
	</g>
</g>
<g id="Emoji_4">
	<g>
		
			<ellipse transform="matrix(0.7071 -0.7071 0.7071 0.7071 -20.0849 127.3646)" style="fill:#FFFFFF;stroke:#263238;stroke-miterlimit:10;" cx="143.7" cy="87.927" rx="48.943" ry="48.943"/>
		<g>
			<g>
				<g>
					<path style="fill:#92E3A9;stroke:#263238;stroke-miterlimit:10;" d="M118.558,104.015c-0.111,0-0.225-0.02-0.335-0.061
						c-21.064-7.859-25.15-21.957-25.313-22.553c-0.14-0.511,0.16-1.039,0.672-1.179c0.509-0.141,1.038,0.16,1.179,0.67
						c0.053,0.188,4.088,13.784,24.134,21.265c0.497,0.185,0.749,0.738,0.564,1.234
						C119.313,103.777,118.947,104.015,118.558,104.015z"/>
				</g>
				<g>
					<path style="fill:#92E3A9;stroke:#263238;stroke-miterlimit:10;" d="M168.65,104.015c-0.389,0-0.755-0.238-0.899-0.624
						c-0.185-0.497,0.067-1.05,0.564-1.234c10.507-3.921,16.507-9.31,19.69-13.141c3.443-4.143,4.425-7.407,4.434-7.438
						c0.149-0.507,0.68-0.802,1.189-0.653c0.508,0.147,0.801,0.678,0.655,1.185c-0.163,0.568-4.241,13.988-25.298,21.845
						C168.875,103.996,168.761,104.015,168.65,104.015z"/>
				</g>
				<g>
					<path style="fill:#92E3A9;stroke:#263238;stroke-miterlimit:10;" d="M115.844,128.477c-2.642,0-3.641-1.486-3.693-1.565
						c-0.288-0.445-0.16-1.039,0.285-1.327c0.437-0.283,1.02-0.163,1.313,0.263c0.065,0.085,1.034,1.261,4.069,0.405
						c0.509-0.143,1.04,0.154,1.184,0.665c0.143,0.51-0.154,1.04-0.665,1.184C117.38,128.37,116.552,128.477,115.844,128.477z"/>
				</g>
				<g>
					<path style="fill:#92E3A9;stroke:#263238;stroke-miterlimit:10;" d="M171.218,128.954c-2.161,0-4.849-0.666-4.98-0.699
						c-0.514-0.128-0.826-0.649-0.698-1.163c0.128-0.514,0.645-0.829,1.164-0.698c0.936,0.233,3.702,0.797,5.246,0.601
						c0.528-0.058,1.006,0.306,1.073,0.831c0.067,0.526-0.306,1.007-0.831,1.073C171.889,128.937,171.56,128.954,171.218,128.954z"
						/>
				</g>
			</g>
			<path style="fill:#92E3A9;stroke:#263238;stroke-miterlimit:10;" d="M169.323,127.177c-9.059,9.059-42.186,9.059-51.245,0
				c-5.29-5.29-5.819-25.225,0-29.927c9.965-8.052,41.281-8.052,51.245,0C175.142,101.952,174.613,121.887,169.323,127.177z"/>
			<path style="fill:#92E3A9;stroke:#263238;stroke-miterlimit:10;" d="M166.97,125.838c-8.227,8.227-38.313,8.227-46.54,0
				c-4.805-4.805-5.285-22.909,0-27.179c9.05-7.313,37.49-7.313,46.54,0C172.255,102.929,171.775,121.033,166.97,125.838z"/>
			<path style="fill:none;stroke:#263238;stroke-miterlimit:10;" d="M140.177,104.651c7.812,0.121,17.097-0.125,26.516-1.26"/>
			<path style="fill:none;stroke:#263238;stroke-miterlimit:10;" d="M119.457,103.391c0,0,6.965,0.87,17.221,1.18"/>
			<path style="fill:none;stroke:#263238;stroke-miterlimit:10;" d="M164.681,113.776c0.95-0.173,1.911-0.359,2.883-0.558"/>
			<path style="fill:none;stroke:#263238;stroke-miterlimit:10;" d="M118.934,113.219c0,0,16.754,5.041,42.057,1.175"/>
			<path style="fill:none;stroke:#263238;stroke-miterlimit:10;" d="M129.387,124.665c9.087,1.317,24.119,2.416,36.608-1.86"/>
			<path style="fill:none;stroke:#263238;stroke-miterlimit:10;" d="M121.2,123.154c0,0,2.202,0.543,5.802,1.141"/>
		</g>
		<g>
			<path style="fill:#92E3A9;stroke:#263238;stroke-miterlimit:10;" d="M125.566,66.217c0.401-0.807-4.892-2.747-5.554-2.915
				c-3.179-0.807-7.063,0.312-8.855,3.184c-4.276,6.851,3.403,14.045,8.827,16.878c2.011,1.051,4.584,1.807,6.323,3.298
				c1.734,1.487,1.611,2.354,1.611,2.354s4.584-1.858,8.92-6.566c4.886-5.305,10.273-20.615-0.968-22.329
				C131.782,59.497,127.595,62.878,125.566,66.217z"/>
			<path style="fill:#92E3A9;stroke:#263238;stroke-miterlimit:10;" d="M161.297,65.97c-0.355-0.675,3.993-2.403,4.469-2.575
				c3.449-1.243,7.89-0.441,9.939,2.843c4.276,6.851-3.403,14.045-8.827,16.878c-2.011,1.05-4.584,1.807-6.323,3.298
				c-1.734,1.487-1.611,2.354-1.611,2.354s-4.584-1.858-8.92-6.566c-4.886-5.305-10.273-20.615,0.968-22.329
				C155.081,59.25,159.268,62.63,161.297,65.97z"/>
			<path style="fill:#FFFFFF;" d="M174.728,68.168c0,1.431-1.237,2.591-2.764,2.591s-2.764-1.16-2.764-2.591
				s1.237-2.591,2.764-2.591S174.728,66.737,174.728,68.168z"/>
			<ellipse style="fill:#FFFFFF;" cx="136.208" cy="65.75" rx="2.764" ry="2.591"/>
		</g>
	</g>
</g>
<g id="Emoji_3">
	<g>
		<circle style="fill:#FFFFFF;stroke:#263238;stroke-miterlimit:10;" cx="83.506" cy="294.14" r="48.943"/>
		<g>
			<g>
				<g>
					<path style="fill:#92E3A9;stroke:#263238;stroke-miterlimit:10;" d="M58.363,310.229c-0.111,0-0.225-0.02-0.335-0.061
						c-21.064-7.859-25.15-21.957-25.314-22.553c-0.14-0.511,0.16-1.039,0.672-1.179c0.509-0.141,1.038,0.16,1.179,0.67
						c0.053,0.187,4.088,13.784,24.134,21.265c0.497,0.185,0.749,0.738,0.564,1.234C59.118,309.991,58.752,310.229,58.363,310.229z"
						/>
				</g>
				<g>
					<path style="fill:#92E3A9;stroke:#263238;stroke-miterlimit:10;" d="M108.456,310.229c-0.389,0-0.755-0.238-0.899-0.624
						c-0.185-0.497,0.067-1.05,0.564-1.234c10.507-3.921,16.507-9.31,19.69-13.141c3.443-4.143,4.425-7.407,4.434-7.438
						c0.149-0.507,0.68-0.802,1.189-0.653c0.508,0.147,0.801,0.677,0.655,1.186c-0.163,0.568-4.241,13.987-25.298,21.845
						C108.68,310.209,108.567,310.229,108.456,310.229z"/>
				</g>
				<g>
					<path style="fill:#92E3A9;stroke:#263238;stroke-miterlimit:10;" d="M55.65,334.69c-2.642,0-3.641-1.485-3.693-1.565
						c-0.288-0.445-0.16-1.039,0.285-1.327c0.437-0.283,1.02-0.163,1.313,0.263c0.065,0.085,1.034,1.26,4.069,0.405
						c0.509-0.143,1.04,0.154,1.184,0.664c0.143,0.51-0.154,1.04-0.664,1.184C57.185,334.583,56.358,334.69,55.65,334.69z"/>
				</g>
				<g>
					<path style="fill:#92E3A9;stroke:#263238;stroke-miterlimit:10;" d="M111.024,335.167c-2.161,0-4.849-0.666-4.98-0.699
						c-0.514-0.128-0.826-0.65-0.698-1.163c0.128-0.515,0.645-0.829,1.164-0.698c0.936,0.233,3.702,0.797,5.246,0.601
						c0.529-0.058,1.006,0.305,1.073,0.831c0.067,0.526-0.305,1.007-0.831,1.073C111.695,335.15,111.366,335.167,111.024,335.167z"
						/>
				</g>
			</g>
			<path style="fill:#92E3A9;stroke:#263238;stroke-miterlimit:10;" d="M109.129,333.39c-9.059,9.059-42.186,9.059-51.245,0
				c-5.291-5.29-5.819-25.225,0-29.927c9.965-8.052,41.281-8.052,51.245,0C114.948,308.165,114.419,328.1,109.129,333.39z"/>
			<path style="fill:#92E3A9;stroke:#263238;stroke-miterlimit:10;" d="M106.776,332.051c-8.227,8.227-38.313,8.227-46.54,0
				c-4.805-4.805-5.285-22.909,0-27.179c9.05-7.313,37.49-7.313,46.54,0C112.061,309.142,111.58,327.246,106.776,332.051z"/>
			<path style="fill:none;stroke:#263238;stroke-miterlimit:10;" d="M79.983,310.864c7.812,0.12,17.097-0.125,26.515-1.26"/>
			<path style="fill:none;stroke:#263238;stroke-miterlimit:10;" d="M59.263,309.604c0,0,6.965,0.87,17.221,1.18"/>
			<path style="fill:none;stroke:#263238;stroke-miterlimit:10;" d="M104.487,319.99c0.95-0.173,1.911-0.358,2.883-0.557"/>
			<path style="fill:none;stroke:#263238;stroke-miterlimit:10;" d="M58.739,319.432c0,0,16.754,5.041,42.057,1.175"/>
			<path style="fill:none;stroke:#263238;stroke-miterlimit:10;" d="M69.193,330.879c9.087,1.316,24.119,2.416,36.608-1.86"/>
			<path style="fill:none;stroke:#263238;stroke-miterlimit:10;" d="M61.005,329.367c0,0,2.202,0.543,5.802,1.141"/>
		</g>
		<path style="fill:#263238;" d="M65.503,285.234c4.399,0,8.174,2.586,9.788,6.272c0.539-1.231,0.838-2.585,0.838-4.007
			c0-5.676-4.758-10.278-10.626-10.278c-5.869,0-10.627,4.602-10.627,10.278c0,1.421,0.299,2.775,0.838,4.007
			C57.329,287.82,61.104,285.234,65.503,285.234z"/>
		<path style="fill:#263238;" d="M97.906,285.234c4.399,0,8.174,2.586,9.788,6.272c0.539-1.231,0.838-2.585,0.838-4.007
			c0-5.676-4.758-10.278-10.626-10.278c-5.869,0-10.627,4.602-10.627,10.278c0,1.421,0.299,2.775,0.838,4.007
			C89.732,287.82,93.506,285.234,97.906,285.234z"/>
	</g>
</g>
<g id="Emoji_2">
	<g>
		
			<ellipse transform="matrix(0.2108 -0.9775 0.9775 0.2108 -207.8665 591.741)" style="fill:#FFFFFF;stroke:#263238;stroke-miterlimit:10;" cx="262.525" cy="424.6" rx="48.943" ry="48.943"/>
		<g>
			<ellipse style="fill:#263238;" cx="248.674" cy="418.178" rx="5.194" ry="9.151"/>
			<path style="fill:#263238;" d="M281.57,418.178c0,5.054-2.326,9.151-5.194,9.151c-2.868,0-5.194-4.097-5.194-9.151
				c0-5.054,2.326-9.151,5.194-9.151C279.244,409.026,281.57,413.124,281.57,418.178z"/>
		</g>
		<g>
			<g>
				<g>
					<path style="fill:#92E3A9;stroke:#263238;stroke-miterlimit:10;" d="M237.382,440.688c-0.112,0-0.225-0.02-0.335-0.061
						c-21.064-7.859-25.15-21.957-25.314-22.553c-0.14-0.511,0.16-1.039,0.672-1.179c0.509-0.141,1.038,0.16,1.179,0.67
						c0.053,0.188,4.087,13.784,24.134,21.265c0.497,0.185,0.749,0.737,0.564,1.234C238.137,440.45,237.771,440.688,237.382,440.688
						z"/>
				</g>
				<g>
					<path style="fill:#92E3A9;stroke:#263238;stroke-miterlimit:10;" d="M287.475,440.688c-0.389,0-0.755-0.238-0.899-0.624
						c-0.185-0.497,0.067-1.05,0.564-1.234c10.507-3.921,16.507-9.31,19.69-13.141c3.443-4.143,4.425-7.407,4.434-7.439
						c0.149-0.507,0.68-0.802,1.189-0.653c0.508,0.147,0.801,0.678,0.655,1.186c-0.163,0.568-4.241,13.987-25.298,21.845
						C287.699,440.668,287.586,440.688,287.475,440.688z"/>
				</g>
				<g>
					<path style="fill:#92E3A9;stroke:#263238;stroke-miterlimit:10;" d="M234.669,465.15c-2.642,0-3.641-1.486-3.693-1.565
						c-0.288-0.445-0.16-1.039,0.285-1.327c0.437-0.283,1.02-0.163,1.313,0.263c0.065,0.085,1.034,1.26,4.069,0.405
						c0.509-0.143,1.04,0.154,1.184,0.664c0.143,0.51-0.154,1.04-0.664,1.184C236.204,465.043,235.377,465.15,234.669,465.15z"/>
				</g>
				<g>
					<path style="fill:#92E3A9;stroke:#263238;stroke-miterlimit:10;" d="M290.043,465.627c-2.161,0-4.849-0.666-4.98-0.699
						c-0.514-0.128-0.826-0.65-0.698-1.163c0.128-0.514,0.645-0.829,1.164-0.698c0.936,0.233,3.702,0.797,5.246,0.601
						c0.529-0.058,1.006,0.306,1.073,0.831c0.066,0.526-0.306,1.007-0.831,1.073C290.714,465.61,290.385,465.627,290.043,465.627z"
						/>
				</g>
			</g>
			<path style="fill:#92E3A9;stroke:#263238;stroke-miterlimit:10;" d="M288.148,463.85c-9.059,9.059-42.186,9.059-51.245,0
				c-5.29-5.29-5.819-25.225,0-29.927c9.965-8.052,41.281-8.052,51.245,0C293.967,438.625,293.438,458.56,288.148,463.85z"/>
			<path style="fill:#92E3A9;stroke:#263238;stroke-miterlimit:10;" d="M285.795,462.51c-8.227,8.227-38.313,8.227-46.54,0
				c-4.805-4.805-5.285-22.909,0-27.179c9.05-7.313,37.49-7.313,46.54,0C291.08,439.602,290.599,457.706,285.795,462.51z"/>
			<path style="fill:none;stroke:#263238;stroke-miterlimit:10;" d="M259.002,441.324c7.812,0.121,17.097-0.125,26.516-1.26"/>
			<path style="fill:none;stroke:#263238;stroke-miterlimit:10;" d="M238.281,440.064c0,0,6.965,0.87,17.221,1.18"/>
			<path style="fill:none;stroke:#263238;stroke-miterlimit:10;" d="M283.506,450.449c0.95-0.173,1.911-0.359,2.883-0.558"/>
			<path style="fill:none;stroke:#263238;stroke-miterlimit:10;" d="M237.758,449.892c0,0,16.754,5.041,42.057,1.175"/>
			<path style="fill:none;stroke:#263238;stroke-miterlimit:10;" d="M248.212,461.338c9.087,1.316,24.119,2.416,36.608-1.86"/>
			<path style="fill:none;stroke:#263238;stroke-miterlimit:10;" d="M240.024,459.827c0,0,2.202,0.543,5.802,1.141"/>
		</g>
	</g>
</g>
<g id="Emoji_1">
	<g>
		<g>
			
				<ellipse transform="matrix(0.7071 -0.7071 0.7071 0.7071 -79.7497 265.6154)" style="fill:#92E3A9;stroke:#263238;stroke-miterlimit:10;" cx="280.751" cy="229.074" rx="114.273" ry="114.273"/>
			<g>
				<path style="fill:#FFFFFF;stroke:#263238;stroke-miterlimit:10;" d="M399.277,208.73c-1.396-1.22-3.518-1.08-4.739,0.316
					c-21.854,24.977-45.14,35.644-56.037,39.566c-6.287,0.381-14.998-0.062-26.643-2.585c-29.382-6.366-59.743-20.567-85.208-28.892
					c-25.464-8.325-61.702-0.979-61.702-0.979c-7.345,45.052,21.881,101.528,69.537,119.976
					c30.361,11.753,55.826,12.732,81.78,3.918c13.189-4.479,39.176-17.139,41.625-21.547c2.448-4.407-2.449-3.428-2.449-3.428
					c-6.366,5.387-21.057,13.712-25.464,11.263c-4.407-2.449-11.753-21.547-1.469-43.583c6.001-12.859,12.998-23.376,17.789-29.912
					c12.812-5.36,33.474-16.718,53.296-39.372C400.815,212.074,400.674,209.952,399.277,208.73z"/>
				<path style="fill:none;stroke:#263238;stroke-miterlimit:10;" d="M316.511,320.767c1.836,4.346,4.162,6.795,6.121,8.509"/>
				<path style="fill:none;stroke:#263238;stroke-miterlimit:10;" d="M182.084,223.949c10.808-1.139,26.812-1.112,43.588,4.938
					c29.872,10.773,49.949,22.036,68.558,25.954c18.609,3.918,31.341,6.856,31.341,6.856s-12.242,20.567-12.242,39.176
					c0,7.633,0.906,13.207,2.246,17.362"/>
				<path style="fill:none;stroke:#263238;stroke-miterlimit:10;" d="M168.377,226.439c0,0,2.633-0.799,7.156-1.582"/>
				<path style="fill:none;stroke:#263238;stroke-miterlimit:10;" d="M177.191,254.841c0,0,11.263-4.407,37.707,3.918
					c26.444,8.325,43.094,23.505,91.574,27.913"/>
				<path style="fill:none;stroke:#263238;stroke-miterlimit:10;" d="M185.516,281.775c0,0,24.975,2.448,47.011,13.222
					c22.036,10.773,35.748,20.078,71.986,17.139"/>
				<path style="fill:none;stroke:#263238;stroke-miterlimit:10;" d="M205.104,314.095c0,0,15.67,0.979,43.093,13.712
					c17.419,8.087,41.135,6.856,61.212,0.49"/>
			</g>
			<path style="fill:#263238;" d="M225.558,196.249c-1.473,8.116-6.874,13.932-12.063,12.99c-5.189-0.942-8.201-8.285-6.728-16.401
				c1.473-8.116,6.874-13.932,12.063-12.99C224.019,180.79,227.031,188.133,225.558,196.249z"/>
			<path style="fill:#263238;" d="M209.198,164.953c10.933,0,20.382,4.913,24.867,12.042c0.108-0.884,0.17-1.782,0.17-2.694
				c0-12.35-10.183-22.362-22.744-22.362c-11.714,0-21.356,8.708-22.604,19.899C193.938,167.606,201.167,164.953,209.198,164.953z"
				/>
			
				<ellipse transform="matrix(0.7468 -0.6651 0.6651 0.7468 -21.7807 272.5363)" style="opacity:0.33;fill:#FFFFFF;" cx="347.011" cy="164.871" rx="17.763" ry="29.066"/>
			<path style="fill:#FFFFFF;" d="M353.948,158.693c5.583,6.269,7.004,14.117,3.172,17.529c-3.831,3.412-11.463,1.096-17.046-5.173
				c-5.583-6.269-7.004-14.117-3.172-17.529C340.733,150.108,348.365,152.424,353.948,158.693z"/>
			<g>
				<path style="fill:#263238;" d="M280.767,187.371c-15.007,0-27.36,11.156-28.958,25.493c6.471-5.422,15.731-8.821,26.019-8.821
					c14.007,0,26.111,6.295,31.857,15.427c0.138-1.132,0.218-2.282,0.218-3.451C309.904,200.197,296.859,187.371,280.767,187.371z"
					/>
				<path style="fill:#263238;" d="M288.148,218.271c0,0-11.674-18.601-36.338-5.407
					C251.81,212.864,274.249,208.162,288.148,218.271z"/>
			</g>
		</g>
		<g>
			<g>
				<path style="fill:#92E3A9;stroke:#263238;stroke-miterlimit:10;" d="M400.874,272.77c-9.359-5.206-13.197-14.56-16.05-24.784
					c-5.876-21.057,0.49-31.83-4.407-36.238c-4.897-4.407-23.995-3.428-31.83,17.629c-7.835,21.057,1.469,39.176,5.387,43.583
					c3.918,4.407,5.876,6.366,5.876,6.366s-20.078,8.815-31.341,9.794c-11.263,0.979-23.016,3.918-25.954,15.181
					c-2.938,11.263,0.49,19.098,12.242,22.526c0,0-6.366,7.346-2.448,18.119c3.917,10.773,13.222,10.773,13.222,10.773
					s-3.918,11.263,6.856,20.568c19.187,16.57,59.815,12.674,81.289,2.448c28.873-13.749,41.251-53.379,22.831-83.674
					c-7.375-12.129-21.252-15.739-33.453-21.183C402.321,273.533,401.581,273.163,400.874,272.77z"/>
				<path style="fill:none;stroke:#263238;stroke-miterlimit:10;" d="M314.797,326.827c0,0,6.366,2.449,19.588,0.979"/>
				<path style="fill:none;stroke:#263238;stroke-miterlimit:10;" d="M325.57,355.719c0,0,6.366,1.469,9.794,0.979"/>
			</g>
			
				<ellipse transform="matrix(0.7468 -0.6651 0.6651 0.7468 -96.1241 354.0051)" style="opacity:0.33;fill:#FFFFFF;" cx="416.824" cy="303.235" rx="14.606" ry="23.901"/>
			<path style="fill:#FFFFFF;" d="M423.17,297.583c5.107,5.735,6.407,12.914,2.902,16.035c-3.505,3.121-10.486,1.002-15.593-4.733
				c-5.107-5.735-6.407-12.914-2.902-16.035C411.081,289.73,418.063,291.849,423.17,297.583z"/>
		</g>
	</g>
</g>
</svg>
