<svg width="25" height="24" viewBox="0 0 25 24" fill="none" xmlns="http://www.w3.org/2000/svg">
<path d="M17.6856 17.625L19.7803 15.5303C19.9208 15.3896 19.9997 15.1989 19.9997 15.0001C19.9996 14.8013 19.9206 14.6106 19.78 14.47C19.6394 14.3294 19.4487 14.2504 19.2499 14.2503C19.0511 14.2503 18.8604 14.3292 18.7197 14.4697L16.625 16.5644L12.7144 12.6538C13.8996 12.4146 14.9535 11.7435 15.6717 10.7709C16.3899 9.7983 16.721 8.59351 16.6009 7.39047C16.4807 6.18742 15.9177 5.07195 15.0213 4.26063C14.1249 3.4493 12.959 3.00002 11.75 3H7.25C7.05109 3 6.86032 3.07902 6.71967 3.21967C6.57902 3.36032 6.5 3.55109 6.5 3.75V18C6.5 18.1989 6.57902 18.3897 6.71967 18.5303C6.86032 18.671 7.05109 18.75 7.25 18.75C7.44891 18.75 7.63968 18.671 7.78033 18.5303C7.92098 18.3897 8 18.1989 8 18V12.75H10.6894L15.5644 17.625L13.4697 19.7197C13.4 19.7893 13.3447 19.872 13.3069 19.963C13.2692 20.054 13.2497 20.1516 13.2497 20.2501C13.2497 20.3486 13.269 20.4462 13.3067 20.5372C13.3444 20.6283 13.3997 20.711 13.4693 20.7807C13.539 20.8503 13.6217 20.9056 13.7128 20.9433C13.8038 20.981 13.9014 21.0003 13.9999 21.0003C14.0984 21.0003 14.196 20.9808 14.287 20.9431C14.378 20.9053 14.4607 20.85 14.5303 20.7803L16.625 18.6856L18.7197 20.7803C18.8604 20.9208 19.0511 20.9997 19.2499 20.9997C19.4487 20.9996 19.6394 20.9206 19.78 20.78C19.9206 20.6394 19.9996 20.4487 19.9997 20.2499C19.9997 20.0511 19.9208 19.8604 19.7803 19.7197L17.6856 17.625ZM8 11.25V4.5H11.75C12.6451 4.5 13.5035 4.85558 14.1365 5.48851C14.7694 6.12145 15.125 6.97989 15.125 7.875C15.125 8.77011 14.7694 9.62855 14.1365 10.2615C13.5035 10.8944 12.6451 11.25 11.75 11.25H8Z" fill="#FAF5F5"/>
</svg>
